<svg width="48" height="48" viewBox="0 0 48 48" fill="none" xmlns="http://www.w3.org/2000/svg">
<g clip-path="url(#clip0_44_251)" filter="url(#filter0_d_44_251)">
<path d="M32.7149 0.909546C29.3098 0.909546 26.1223 2.52471 24 5.23089C21.8777 2.52462 18.6903 0.909546 15.2851 0.909546C9.06251 0.909546 4 6.21314 4 12.7323C4 17.837 6.90549 23.7415 12.6356 30.2816C17.0454 35.3146 21.8425 39.2116 23.2076 40.2861L23.9997 40.9095L24.7918 40.2862C26.157 39.2117 30.9543 35.3148 35.3641 30.2818C41.0944 23.7417 44 17.8371 44 12.7323C44 6.21314 38.9375 0.909546 32.7149 0.909546ZM33.4212 28.4133C29.794 32.553 25.8917 35.8995 23.9997 37.4418C22.1079 35.8995 18.2057 32.5529 14.5785 28.4132C9.38338 22.4837 6.63736 17.0613 6.63736 12.7323C6.63736 7.73676 10.5167 3.67256 15.2851 3.67256C18.423 3.67256 21.3204 5.46428 22.8467 8.34858L24 10.5282L25.1533 8.34858C26.6795 5.46437 29.5769 3.67256 32.7149 3.67256C37.4833 3.67256 41.3626 7.73667 41.3626 12.7323C41.3626 17.0615 38.6165 22.4839 33.4212 28.4133Z" fill="white"/>
</g>
<defs>
<filter id="filter0_d_44_251" x="0" y="0" width="48" height="48" filterUnits="userSpaceOnUse" color-interpolation-filters="sRGB">
<feFlood flood-opacity="0" result="BackgroundImageFix"/>
<feColorMatrix in="SourceAlpha" type="matrix" values="0 0 0 0 0 0 0 0 0 0 0 0 0 0 0 0 0 0 127 0" result="hardAlpha"/>
<feOffset dy="4"/>
<feGaussianBlur stdDeviation="2"/>
<feComposite in2="hardAlpha" operator="out"/>
<feColorMatrix type="matrix" values="0 0 0 0 0 0 0 0 0 0 0 0 0 0 0 0 0 0 0.25 0"/>
<feBlend mode="normal" in2="BackgroundImageFix" result="effect1_dropShadow_44_251"/>
<feBlend mode="normal" in="SourceGraphic" in2="effect1_dropShadow_44_251" result="shape"/>
</filter>
<clipPath id="clip0_44_251">
<rect width="40" height="40" fill="white" transform="translate(4)"/>
</clipPath>
</defs>
</svg>
