<svg width="40" height="40" viewBox="0 0 40 40" fill="none" xmlns="http://www.w3.org/2000/svg">
<path d="M20 2.5C16.5388 2.5 13.1554 3.52636 10.2775 5.44928C7.39967 7.37221 5.15665 10.1053 3.83212 13.303C2.50758 16.5007 2.16102 20.0194 2.83627 23.4141C3.51151 26.8087 5.17822 29.9269 7.62564 32.3744C10.0731 34.8218 13.1913 36.4885 16.5859 37.1637C19.9806 37.839 23.4993 37.4924 26.697 36.1679C29.8947 34.8434 32.6278 32.6003 34.5507 29.7225C36.4737 26.8446 37.5 23.4612 37.5 20C37.5 15.3587 35.6563 10.9075 32.3744 7.62563C29.0925 4.34374 24.6413 2.5 20 2.5ZM20 35C17.0333 35 14.1332 34.1203 11.6665 32.472C9.19972 30.8238 7.27713 28.4811 6.14181 25.7403C5.0065 22.9994 4.70945 19.9834 5.28823 17.0736C5.86701 14.1639 7.29562 11.4912 9.39341 9.3934C11.4912 7.29561 14.1639 5.867 17.0737 5.28822C19.9834 4.70944 22.9994 5.00649 25.7403 6.14181C28.4811 7.27712 30.8238 9.19971 32.472 11.6664C34.1203 14.1332 35 17.0333 35 20C35 23.9782 33.4197 27.7936 30.6066 30.6066C27.7936 33.4196 23.9783 35 20 35Z" fill="white"/>
<path d="M20 31.25C21.0355 31.25 21.875 30.4105 21.875 29.375C21.875 28.3395 21.0355 27.5 20 27.5C18.9645 27.5 18.125 28.3395 18.125 29.375C18.125 30.4105 18.9645 31.25 20 31.25Z" fill="white"/>
<path d="M21.25 10H19.375C18.6359 9.99835 17.9037 10.1427 17.2205 10.4248C16.5373 10.7069 15.9165 11.1212 15.3939 11.6438C14.8712 12.1665 14.4569 12.7873 14.1748 13.4705C13.8927 14.1537 13.7484 14.8859 13.75 15.625V16.25H16.25V15.625C16.25 14.7962 16.5793 14.0013 17.1653 13.4153C17.7514 12.8292 18.5462 12.5 19.375 12.5H21.25C22.0788 12.5 22.8737 12.8292 23.4597 13.4153C24.0458 14.0013 24.375 14.7962 24.375 15.625C24.375 16.4538 24.0458 17.2487 23.4597 17.8347C22.8737 18.4208 22.0788 18.75 21.25 18.75H18.75V24.375H21.25V21.25C22.7419 21.25 24.1726 20.6574 25.2275 19.6025C26.2824 18.5476 26.875 17.1168 26.875 15.625C26.875 14.1332 26.2824 12.7024 25.2275 11.6475C24.1726 10.5926 22.7419 10 21.25 10Z" fill="white"/>
</svg>
