<svg width="42" height="42" viewBox="0 0 42 42" fill="none" xmlns="http://www.w3.org/2000/svg">
<path d="M40.7799 19.252L34.7929 13.7275V4.67686H27.8963V7.36409L20.9997 1L1.22014 19.252C0.941512 19.5097 0.924961 19.9435 1.18427 20.2211C1.4429 20.498 1.87945 20.5138 2.15946 20.2567L4.44845 18.1445V41H15.483H26.5176H37.5522V18.1438L39.8412 20.2561C39.9736 20.3787 40.1426 20.439 40.3109 20.439C40.4964 20.439 40.6806 20.3657 40.8157 20.2204C41.075 19.9435 41.0585 19.5097 40.7799 19.252ZM29.2756 6.04755H33.4136V12.4548L29.2756 8.63677V6.04755ZM16.8617 39.6293V25.194C16.8617 24.8396 17.1513 24.5518 17.5079 24.5518H24.4914C24.848 24.5518 25.1376 24.8396 25.1376 25.194V39.6293H16.8617ZM36.1722 39.6293H26.517V25.194C26.517 24.0837 25.6087 23.1811 24.4914 23.1811H17.5079C16.3906 23.1811 15.4824 24.0837 15.4824 25.194V39.6293H5.82708V16.8712L20.9997 2.8703L30.848 11.9579L34.7929 15.5978L36.1722 16.8705V39.6293Z" fill="white" stroke="white"/>
</svg>
