<svg width="40" height="40" viewBox="0 0 40 40" fill="none" xmlns="http://www.w3.org/2000/svg">
<g clip-path="url(#clip0_44_336)">
<path d="M22.2291 18.4806C22.4189 18.4806 22.6088 18.4079 22.7534 18.2633L34.0937 6.92299V14.0314C34.0937 14.4414 34.4259 14.7729 34.8352 14.7729C35.2445 14.7729 35.5768 14.4414 35.5768 14.0314V5.13292C35.5768 5.03652 35.5567 4.94012 35.5197 4.84965C35.4448 4.66798 35.3002 4.52338 35.1185 4.44848C35.0199 4.4077 34.916 4.39287 34.8107 4.39583C34.8026 4.39583 34.7959 4.39138 34.787 4.39138H25.8886C25.4792 4.39138 25.147 4.72285 25.147 5.13292C25.147 5.54299 25.4792 5.87446 25.8886 5.87446H33.0444L21.7048 17.2148C21.4149 17.5047 21.4149 17.9734 21.7048 18.2633C21.8494 18.4087 22.0393 18.4806 22.2291 18.4806Z" fill="white"/>
<path d="M39.5713 30.3378C38.0823 27.5236 32.9116 24.4707 32.6839 24.3373C31.7377 23.7974 30.7581 23.6269 29.9247 23.8582C29.2988 24.0317 28.7886 24.4277 28.4446 25.0046C27.6882 25.9093 26.7494 26.9667 26.5225 27.1306C24.7665 28.32 23.371 28.1799 21.8553 26.6642L13.338 18.1469C11.8215 16.6305 11.6821 15.2341 12.87 13.4819C13.0361 13.252 14.0936 12.314 14.9983 11.5569C15.5752 11.2128 15.9712 10.7026 16.1447 10.0767C16.3753 9.244 16.2055 8.26443 15.6612 7.31007C15.5329 7.09058 12.4793 1.9191 9.66586 0.430833C8.23766 -0.324793 6.51136 -0.0652553 5.36791 1.07745L3.48515 2.95873C0.508621 5.93526 -0.568832 9.30852 0.280969 12.9843C0.989879 16.0483 3.0558 19.3089 6.42238 22.6747L17.3267 33.5798C21.5994 37.8525 25.6749 39.9985 29.4123 39.9985C32.1567 39.9985 34.7194 38.8402 37.0434 36.517L38.9247 34.6357C40.0674 33.493 40.3269 31.7652 39.5713 30.3378ZM37.8762 33.5864L35.9949 35.4677C31.1245 40.3374 25.1959 39.3497 18.376 32.5305L7.47091 21.6262C4.30381 18.4591 2.37136 15.4388 1.72623 12.6506C0.989137 9.46053 1.90716 6.63453 4.53368 4.00727L6.41496 2.12599C6.83542 1.70628 7.3886 1.48678 7.94995 1.48678C8.29624 1.48678 8.64625 1.56983 8.9703 1.74187C11.4122 3.03437 14.3509 8.01083 14.3761 8.05309C14.7091 8.63668 14.8359 9.24549 14.715 9.68151C14.6408 9.94846 14.4747 10.1516 14.2078 10.3014L14.0965 10.3786C13.464 10.9065 11.9587 12.1835 11.6435 12.6484C11.1897 13.3187 10.8887 13.9772 10.7307 14.6246C10.2035 13.5731 9.77709 12.3555 9.63694 11.0052C9.59468 10.5988 9.23281 10.3118 8.82274 10.3437C8.41563 10.3867 8.11902 10.7508 8.16128 11.1587C8.69667 16.3146 12.7062 19.6708 12.8767 19.8109C12.8953 19.8257 12.9168 19.8317 12.936 19.8443L20.806 27.7142C20.8393 27.7476 20.8742 27.7772 20.9076 27.8099C20.9335 27.8477 20.9506 27.89 20.9847 27.9241C21.1248 28.0627 24.4729 31.3107 29.5858 31.8416C29.6117 31.8438 29.6377 31.8453 29.6629 31.8453C30.0381 31.8453 30.3599 31.5613 30.4 31.1809C30.4423 30.7731 30.1464 30.409 29.7385 30.3659C28.1709 30.2036 26.782 29.7438 25.6245 29.2106C26.1918 29.0401 26.7687 28.7568 27.3538 28.3608C27.8194 28.0449 29.0964 26.5404 29.6236 25.9078L29.7007 25.7959C29.8505 25.5296 30.0537 25.3635 30.3206 25.2886C30.7574 25.1707 31.3655 25.2946 31.9416 25.6223C31.9913 25.652 36.9678 28.5907 38.2603 31.0326C38.7097 31.8809 38.5554 32.9072 37.8762 33.5864Z" fill="white"/>
</g>
<defs>
<clipPath id="clip0_44_336">
<rect width="40" height="40" fill="white"/>
</clipPath>
</defs>
</svg>
