<?xml version="1.0" encoding="iso-8859-1"?>
<!-- Generator: Adobe Illustrator 18.0.0, SVG Export Plug-In . SVG Version: 6.00 Build 0)  -->
<!DOCTYPE svg PUBLIC "-//W3C//DTD SVG 1.1//EN" "http://www.w3.org/Graphics/SVG/1.1/DTD/svg11.dtd">
<svg version="1.1" id="Capa_1" xmlns="http://www.w3.org/2000/svg" xmlns:xlink="http://www.w3.org/1999/xlink" x="0px" y="0px"
	 viewBox="0 0 53.942 53.942" style="enable-background:new 0 0 53.942 53.942;" xml:space="preserve">
<g>
	<path d="M29.977,24.922c0.256,0,0.512-0.098,0.707-0.293L45.977,9.336v9.586c0,0.553,0.448,1,1,1s1-0.447,1-1v-12
		c0-0.13-0.027-0.26-0.077-0.382c-0.101-0.245-0.296-0.44-0.541-0.541c-0.133-0.055-0.273-0.075-0.415-0.071
		c-0.011,0-0.02-0.006-0.032-0.006h-12c-0.552,0-1,0.447-1,1s0.448,1,1,1h9.65L29.27,23.215c-0.391,0.391-0.391,1.023,0,1.414
		C29.465,24.825,29.721,24.922,29.977,24.922z"/>
	<path d="M53.364,40.912c-2.008-3.795-8.981-7.912-9.288-8.092c-1.276-0.728-2.597-0.958-3.721-0.646
		c-0.844,0.234-1.532,0.768-1.996,1.546c-1.02,1.22-2.286,2.646-2.592,2.867c-2.368,1.604-4.25,1.415-6.294-0.629L17.987,24.472
		c-2.045-2.045-2.233-3.928-0.631-6.291c0.224-0.31,1.65-1.575,2.87-2.596c0.778-0.464,1.312-1.152,1.546-1.996
		c0.311-1.123,0.082-2.444-0.652-3.731c-0.173-0.296-4.291-7.27-8.085-9.277c-1.926-1.019-4.254-0.669-5.796,0.872L4.7,3.99
		c-4.014,4.014-5.467,8.563-4.321,13.52c0.956,4.132,3.742,8.529,8.282,13.068l14.705,14.706c5.762,5.762,11.258,8.656,16.298,8.656
		c3.701,0,7.157-1.562,10.291-4.695l2.537-2.537C54.033,45.167,54.383,42.837,53.364,40.912z M51.078,45.293l-2.537,2.537
		c-6.568,6.567-14.563,5.235-23.76-3.961L10.075,29.164c-4.271-4.271-6.877-8.344-7.747-12.104
		C1.334,12.758,2.572,8.947,6.114,5.404l2.537-2.537c0.567-0.566,1.313-0.862,2.07-0.862c0.467,0,0.939,0.112,1.376,0.344
		c3.293,1.743,7.256,8.454,7.29,8.511c0.449,0.787,0.62,1.608,0.457,2.196c-0.1,0.36-0.324,0.634-0.684,0.836l-0.15,0.104
		c-0.853,0.712-2.883,2.434-3.308,3.061c-0.612,0.904-1.018,1.792-1.231,2.665c-0.711-1.418-1.286-3.06-1.475-4.881
		c-0.057-0.548-0.545-0.935-1.098-0.892c-0.549,0.058-0.949,0.549-0.892,1.099c0.722,6.953,6.129,11.479,6.359,11.668
		c0.025,0.02,0.054,0.028,0.08,0.045l10.613,10.613c0.045,0.045,0.092,0.085,0.137,0.129c0.035,0.051,0.058,0.108,0.104,0.154
		c0.189,0.187,4.704,4.567,11.599,5.283c0.035,0.003,0.07,0.005,0.104,0.005c0.506,0,0.94-0.383,0.994-0.896
		c0.057-0.55-0.342-1.041-0.892-1.099c-2.114-0.219-3.987-0.839-5.548-1.558c0.765-0.23,1.543-0.612,2.332-1.146
		c0.628-0.426,2.35-2.455,3.061-3.308l0.104-0.151c0.202-0.359,0.476-0.583,0.836-0.684c0.589-0.159,1.409,0.008,2.186,0.45
		c0.067,0.04,6.778,4.003,8.521,7.296C52.202,42.993,51.994,44.377,51.078,45.293z"/>
</g>
<g>
</g>
<g>
</g>
<g>
</g>
<g>
</g>
<g>
</g>
<g>
</g>
<g>
</g>
<g>
</g>
<g>
</g>
<g>
</g>
<g>
</g>
<g>
</g>
<g>
</g>
<g>
</g>
<g>
</g>
</svg>
